<svg width="66" height="66" viewBox="0 0 66 66" fill="none" xmlns="http://www.w3.org/2000/svg">
<g id="Icons">
<g id="Mask group">
<mask id="mask0_1_7349" style="mask-type:alpha" maskUnits="userSpaceOnUse" x="16" y="15" width="34" height="36">
<g id="Group 1948760385">
<g id="Vector 3900">
<path d="M48.6554 26.9584L38.8505 16V24.6514C38.8505 25.9255 39.8834 26.9584 41.1576 26.9584H48.6554Z" fill="#FDA723"/>
<path d="M17.5105 32.1492V18.307C17.5105 17.0329 18.5434 16 19.8175 16H38.8505M38.8505 16L48.6554 26.9584M38.8505 16V24.6514C38.8505 25.9255 39.8834 26.9584 41.1576 26.9584H48.6554M48.6554 26.9584V32.1492" stroke="#FDA723" stroke-width="2" stroke-linecap="round" stroke-linejoin="round"/>
</g>
<g id="URL">
<path d="M21.6036 50.0005C20.6443 50.0005 19.8237 49.8618 19.1417 49.5844C18.4713 49.307 17.9223 48.914 17.4947 48.4054C17.0786 47.8969 16.7723 47.29 16.5758 46.585C16.3909 45.8684 16.2984 45.0651 16.2984 44.1751V37.5869H18.8123V44.3485C18.8123 44.7993 18.8585 45.2327 18.951 45.6488C19.0435 46.0533 19.1995 46.4116 19.4191 46.7237C19.6387 47.0358 19.9277 47.29 20.286 47.4865C20.6443 47.6715 21.0951 47.7639 21.6383 47.7639C22.17 47.7639 22.615 47.6715 22.9733 47.4865C23.3316 47.29 23.6148 47.0358 23.8228 46.7237C24.0424 46.4001 24.1927 46.036 24.2736 45.6314C24.366 45.2153 24.4123 44.7877 24.4123 44.3485V37.5869H26.9089V44.1751C26.9089 45.042 26.8106 45.8395 26.6141 46.5677C26.4292 47.2843 26.1229 47.8969 25.6952 48.4054C25.2791 48.914 24.7301 49.307 24.0482 49.5844C23.3778 49.8618 22.563 50.0005 21.6036 50.0005Z" fill="white"/>
<path d="M34.3111 37.5869C34.6347 37.5869 34.9584 37.5985 35.282 37.6216C35.6056 37.6331 35.9235 37.6736 36.2355 37.7429C36.5476 37.8123 36.8481 37.9163 37.1371 38.055C37.4376 38.1822 37.715 38.3613 37.9693 38.5925C38.3738 38.9623 38.6628 39.4073 38.8361 39.9275C39.0095 40.436 39.0904 40.9561 39.0789 41.4878C39.0673 42.2044 38.9402 42.8112 38.6974 43.3082C38.4663 43.8052 38.1484 44.2271 37.7439 44.5739C37.374 44.8744 36.9464 45.0882 36.4609 45.2153L39.1829 49.8618H36.3742L33.895 45.4581H31.9359V49.8618H29.422V37.5869H34.3111ZM34.3284 43.3429C34.6405 43.3429 34.9352 43.314 35.2126 43.2562C35.49 43.1984 35.727 43.106 35.9235 42.9788C36.1315 42.8401 36.2933 42.661 36.4089 42.4414C36.5361 42.2102 36.6054 41.9213 36.617 41.5745C36.6285 41.2046 36.5765 40.9041 36.4609 40.673C36.3453 40.4418 36.1835 40.2626 35.9755 40.1355C35.779 40.0084 35.542 39.9275 35.2646 39.8928C34.9988 39.8465 34.7041 39.8234 34.3804 39.8234H31.9359V43.3429H34.3284Z" fill="white"/>
<path d="M43.6856 47.6426H49.7016V49.8618H41.189V37.5869H43.6856V47.6426Z" fill="white"/>
</g>
</g>
</mask>
<g mask="url(#mask0_1_7349)">
<rect id="Rectangle 1614425337" x="8.74176" y="8.75488" width="72.0948" height="50.3333" fill="url(#paint0_linear_1_7349)"/>
</g>
</g>
</g>
<defs>
<linearGradient id="paint0_linear_1_7349" x1="42.4986" y1="3.75736" x2="42.4986" y2="57.7938" gradientUnits="userSpaceOnUse">
<stop stop-color="#FFBF00"/>
<stop offset="0.892445" stop-color="#FB9937"/>
</linearGradient>
</defs>
</svg>
