<svg width="50" height="50" viewBox="0 0 50 50" fill="none" xmlns="http://www.w3.org/2000/svg">
<g id="icon=cloud">
<g id="vuesax/linear/cloud">
<g id="cloud">
<g id="cloud_2">
<path id="Union" fill-rule="evenodd" clip-rule="evenodd" d="M28.2067 9.74243C31.2359 10.9926 33.8077 13.5341 35.3052 17.4846C39.4621 17.8514 42.6827 20.5902 44.2633 23.9873C45.9786 27.6739 45.8564 32.3379 42.7981 35.881C40.9926 38.0704 38.4236 39.4937 35.604 39.8702L15.4754 42.6991C15.4405 42.704 15.4055 42.7076 15.3704 42.7101C5.54706 43.3912 3.09193 30.0921 11.3622 26.7007C9.91092 23.1109 9.9861 19.7389 11.1544 16.8824C12.4833 13.633 15.1644 11.202 18.2594 9.90549C21.3544 8.60898 24.9649 8.40449 28.2067 9.74243ZM13.9311 18.0181C13.0373 20.2035 12.9465 22.9446 14.36 26.0833C15.2822 26.0855 16.2004 26.2376 17.0762 26.5391C17.8595 26.8088 18.2759 27.6624 18.0062 28.4457C17.7366 29.229 16.883 29.6454 16.0997 29.3757C15.3121 29.1046 14.4629 29.02 13.6212 29.1303C7.1076 30.5711 8.45265 40.1341 15.1127 39.7205L35.1917 36.8986L35.2027 36.8971L35.2027 36.8971C37.2813 36.6207 39.1698 35.5712 40.4927 33.9613C40.5009 33.9512 40.5093 33.9413 40.5178 33.9315C42.6878 31.4264 42.8495 28.0602 41.5433 25.2528C40.2902 22.5597 37.7729 20.5674 34.645 20.4484C34.6098 20.4566 34.5741 20.4636 34.5379 20.4693C33.7095 20.6004 32.921 20.9155 32.2273 21.3934C31.5451 21.8634 30.6111 21.6914 30.1411 21.0092C29.6711 20.327 29.8431 19.393 30.5253 18.923C31.0735 18.5453 31.6612 18.2335 32.2766 17.9927C31.0325 15.0804 29.1226 13.3659 27.0622 12.5155C24.6529 11.5212 21.877 11.6427 19.4185 12.6725C16.9602 13.7023 14.9209 15.5981 13.9311 18.0181Z" fill="url(#paint0_linear_1_7325)"/>
</g>
</g>
</g>
</g>
<defs>
<linearGradient id="paint0_linear_1_7325" x1="6.58072" y1="5.12988" x2="27.0257" y2="41.1538" gradientUnits="userSpaceOnUse">
<stop stop-color="#5090FF"/>
<stop offset="1" stop-color="#085CED"/>
</linearGradient>
</defs>
</svg>
