<svg width="66" height="66" viewBox="0 0 66 66" fill="none" xmlns="http://www.w3.org/2000/svg">
<g id="Icons">
<g id="Mask group">
<mask id="mask0_1_7338" style="mask-type:alpha" maskUnits="userSpaceOnUse" x="15" y="15" width="36" height="36">
<g id="Group 1948760384">
<path id="Vector" d="M24.6914 32.3354L24.6914 43.3569C24.6914 47.58 28.1114 51 32.3345 51L36.4606 51C37.2222 51 37.8453 50.3769 37.8453 49.6154L37.8453 43.3846C37.8453 40.3246 40.3237 37.8462 43.3837 37.8462L49.6145 37.8462C50.376 37.8462 50.9991 37.2231 50.9991 36.4615L50.9991 32.3354C50.9991 27.5585 48.1468 24.6923 43.356 24.6923L32.3345 24.6923C28.1114 24.6923 24.6914 28.1123 24.6914 32.3354Z" fill="white"/>
<path id="Vector 3899" d="M42.6914 48.9232V42.6924M42.6914 42.6924H48.9222M42.6914 42.6924L49.6145 49.6155" stroke="white" stroke-width="2" stroke-linecap="round" stroke-linejoin="round"/>
<path id="Subtract" fill-rule="evenodd" clip-rule="evenodd" d="M23.5093 17.0578C23.684 17.0447 23.8607 17.0381 24.0391 17.0381H24.5346C25.0869 17.0381 25.5346 16.5904 25.5346 16.0381C25.5346 15.4858 25.0869 15.0381 24.5346 15.0381H24.0391C23.8109 15.0381 23.5846 15.0466 23.3604 15.0633C22.8097 15.1045 22.3965 15.5843 22.4376 16.135C22.4788 16.6858 22.9586 17.0989 23.5093 17.0578ZM28.6973 15.0381C28.1451 15.0381 27.6973 15.4858 27.6973 16.0381C27.6973 16.5904 28.1451 17.0381 28.6973 17.0381H29.6885C30.2408 17.0381 30.6885 16.5904 30.6885 16.0381C30.6885 15.4858 30.2408 15.0381 29.6885 15.0381H28.6973ZM33.8512 15.0381C33.2989 15.0381 32.8512 15.4858 32.8512 16.0381C32.8512 16.5904 33.2989 17.0381 33.8512 17.0381H34.3468C34.5251 17.0381 34.7018 17.0447 34.8765 17.0578C35.4272 17.0989 35.907 16.6858 35.9482 16.135C35.9893 15.5843 35.5762 15.1045 35.0254 15.0633C34.8012 15.0466 34.5749 15.0381 34.3468 15.0381H33.8512ZM40.2128 17.2123C39.7941 16.8521 39.1627 16.8996 38.8026 17.3183C38.4425 17.7371 38.4899 18.3684 38.9087 18.7286C39.1762 18.9587 39.4262 19.2086 39.6563 19.4762C40.0164 19.8949 40.6478 19.9424 41.0665 19.5822C41.4852 19.2221 41.5327 18.5907 41.1726 18.172C40.8772 17.8286 40.5563 17.5077 40.2128 17.2123ZM19.4772 18.7286C19.8959 18.3684 19.9434 17.7371 19.5832 17.3183C19.2231 16.8996 18.5917 16.8521 18.173 17.2123C17.8295 17.5077 17.5087 17.8286 17.2133 18.172C16.8531 18.5907 16.9006 19.2221 17.3193 19.5822C17.738 19.9424 18.3694 19.8949 18.7295 19.4762C18.9597 19.2086 19.2096 18.9587 19.4772 18.7286ZM43.3215 23.3594C43.2804 22.8087 42.8006 22.3955 42.2498 22.4367C41.6991 22.4778 41.2859 22.9576 41.3271 23.5084C41.3401 23.6831 41.3468 23.8597 41.3468 24.0381V24.5336C41.3468 25.0859 41.7945 25.5336 42.3468 25.5336C42.899 25.5336 43.3468 25.0859 43.3468 24.5336V24.0381C43.3468 23.81 43.3382 23.5836 43.3215 23.3594ZM17.0588 23.5084C17.0999 22.9576 16.6868 22.4778 16.136 22.4367C15.5852 22.3955 15.1054 22.8087 15.0643 23.3594C15.0476 23.5836 15.0391 23.81 15.0391 24.0381V24.5337C15.0391 25.0859 15.4868 25.5337 16.0391 25.5337C16.5913 25.5337 17.0391 25.0859 17.0391 24.5337V24.0381C17.0391 23.8597 17.0457 23.6831 17.0588 23.5084ZM43.3275 28.5C43.2362 28.0417 42.8318 27.6964 42.3468 27.6964C41.8617 27.6964 41.4573 28.0417 41.366 28.5H43.3275ZM29.8828 41.3646V43.3269C29.8199 43.3393 29.755 43.3458 29.6885 43.3458H28.6973C28.1451 43.3458 27.6973 42.8981 27.6973 42.3458C27.6973 41.7935 28.1451 41.3458 28.6973 41.3458H29.6885C29.755 41.3458 29.8199 41.3523 29.8828 41.3646ZM17.0391 28.6964C17.0391 28.1441 16.5913 27.6964 16.0391 27.6964C15.4868 27.6964 15.0391 28.1441 15.0391 28.6964V29.6875C15.0391 30.2398 15.4868 30.6875 16.0391 30.6875C16.5913 30.6875 17.0391 30.2398 17.0391 29.6875V28.6964ZM17.0391 33.8502C17.0391 33.2979 16.5913 32.8502 16.0391 32.8502C15.4868 32.8502 15.0391 33.2979 15.0391 33.8502V34.3458C15.0391 34.5739 15.0476 34.8002 15.0643 35.0244C15.1054 35.5752 15.5852 35.9883 16.136 35.9472C16.6868 35.9061 17.0999 35.4263 17.0588 34.8755C17.0457 34.7008 17.0391 34.5242 17.0391 34.3458V33.8502ZM18.7296 38.9077C18.3694 38.489 17.738 38.4415 17.3193 38.8016C16.9006 39.1618 16.8531 39.7931 17.2133 40.2119C17.5087 40.5553 17.8295 40.8762 18.173 41.1716C18.5917 41.5317 19.2231 41.4842 19.5832 41.0655C19.9434 40.6468 19.8959 40.0154 19.4772 39.6553C19.2096 39.4252 18.9597 39.1752 18.7296 38.9077ZM23.5093 41.3261C22.9586 41.285 22.4788 41.6981 22.4376 42.2488C22.3965 42.7996 22.8097 43.2794 23.3604 43.3205C23.5846 43.3373 23.8109 43.3458 24.0391 43.3458H24.5346C25.0869 43.3458 25.5346 42.8981 25.5346 42.3458C25.5346 41.7935 25.0869 41.3458 24.5346 41.3458H24.0391C23.8607 41.3458 23.684 41.3391 23.5093 41.3261Z" fill="#FCFCFC"/>
</g>
</mask>
<g mask="url(#mask0_1_7338)">
<g id="Rectangle 1614425336">
<rect x="12.2305" y="8.07617" width="49.8462" height="48.4615" fill="#D9D9D9"/>
<rect x="12.2305" y="8.07617" width="49.8462" height="48.4615" fill="url(#paint0_linear_1_7338)"/>
</g>
</g>
</g>
</g>
<defs>
<linearGradient id="paint0_linear_1_7338" x1="35.5699" y1="3.26449" x2="35.5699" y2="55.2915" gradientUnits="userSpaceOnUse">
<stop stop-color="#FFBF00"/>
<stop offset="0.892445" stop-color="#FB9937"/>
</linearGradient>
</defs>
</svg>
