<svg width="30" height="28" viewBox="0 0 30 28" fill="none" xmlns="http://www.w3.org/2000/svg">
<g id="Logo icon">
<g id="Ellipse 48 (Stroke) (Stroke)">
<path fill-rule="evenodd" clip-rule="evenodd" d="M13.5094 1.30697C13.5566 0.538376 14.1685 -0.043153 14.8762 0.00808704C20.6576 0.426709 24.3626 2.0268 26.6107 3.86044C28.8513 5.68807 29.6548 7.76002 29.5826 9.11177C29.5798 11.761 27.9934 13.9718 25.3591 15.5993C22.725 17.2267 19.0134 18.2937 14.6727 18.6597C10.1844 19.0382 6.53623 18.4156 4.00026 17.1664C1.46195 15.916 0.00302111 14.0149 0.00302085 11.8397C0.00302101 9.65697 1.4705 7.94196 4.00829 6.82289C6.54026 5.70638 10.183 5.15684 14.6627 5.30884C15.3716 5.33289 15.9283 5.97654 15.9061 6.74646C15.884 7.51638 15.2914 8.12103 14.5825 8.09697C10.2862 7.9512 7.04385 8.49496 4.97445 9.40748C2.87492 10.3333 2.57136 11.3067 2.57136 11.8397C2.57136 12.471 2.99281 13.6071 5.0611 14.626C7.0868 15.6238 10.2699 16.2331 14.4739 15.8786C18.5872 15.5317 21.8929 14.5316 24.0891 13.1747C26.291 11.8143 27.0143 10.3663 27.0143 9.10473C27.0143 8.95681 27.0138 8.82978 26.9776 8.68298C26.9362 8.51544 26.8587 8.29206 26.7227 8.0268C26.452 7.49892 25.9526 6.81223 25.0684 6.09098C23.3273 4.67086 20.1459 3.18534 14.7054 2.7914C13.9977 2.74016 13.4623 2.07556 13.5094 1.30697Z" fill="#FFBF00"/>
<path fill-rule="evenodd" clip-rule="evenodd" d="M13.5094 1.30697C13.5566 0.538376 14.1685 -0.043153 14.8762 0.00808704C20.6576 0.426709 24.3626 2.0268 26.6107 3.86044C28.8513 5.68807 29.6548 7.76002 29.5826 9.11177C29.5798 11.761 27.9934 13.9718 25.3591 15.5993C22.725 17.2267 19.0134 18.2937 14.6727 18.6597C10.1844 19.0382 6.53623 18.4156 4.00026 17.1664C1.46195 15.916 0.00302111 14.0149 0.00302085 11.8397C0.00302101 9.65697 1.4705 7.94196 4.00829 6.82289C6.54026 5.70638 10.183 5.15684 14.6627 5.30884C15.3716 5.33289 15.9283 5.97654 15.9061 6.74646C15.884 7.51638 15.2914 8.12103 14.5825 8.09697C10.2862 7.9512 7.04385 8.49496 4.97445 9.40748C2.87492 10.3333 2.57136 11.3067 2.57136 11.8397C2.57136 12.471 2.99281 13.6071 5.0611 14.626C7.0868 15.6238 10.2699 16.2331 14.4739 15.8786C18.5872 15.5317 21.8929 14.5316 24.0891 13.1747C26.291 11.8143 27.0143 10.3663 27.0143 9.10473C27.0143 8.95681 27.0138 8.82978 26.9776 8.68298C26.9362 8.51544 26.8587 8.29206 26.7227 8.0268C26.452 7.49892 25.9526 6.81223 25.0684 6.09098C23.3273 4.67086 20.1459 3.18534 14.7054 2.7914C13.9977 2.74016 13.4623 2.07556 13.5094 1.30697Z" fill="url(#paint0_radial_2010_140)"/>
</g>
<g id="Subtract">
<path d="M22.511 18.4253C22.6366 18.3805 22.7612 18.3349 22.8847 18.2884C23.4237 18.187 23.9834 18.4702 24.2461 19.0267C24.5698 19.7122 24.3205 20.5527 23.6894 20.9042C18.014 24.065 11.7799 23.7949 7.41381 22.8998C5.23177 22.4525 3.3948 21.6788 2.09725 20.7548C1.4111 20.2662 0.908202 19.7629 0.56597 19.2588C0.235352 18.7719 0.00320503 18.2047 0.00318337 17.6151C0.00316325 17.0638 0.101578 16.5432 0.291459 16.0564C1.09913 16.9855 2.16623 17.7681 3.40346 18.3775C3.4448 18.3979 3.48637 18.4181 3.52818 18.4381C4.47793 19.1081 5.96823 19.7647 7.8902 20.1587C11.7415 20.9483 17.109 21.1223 22.511 18.4253Z" fill="#FFBF00"/>
<path d="M22.511 18.4253C22.6366 18.3805 22.7612 18.3349 22.8847 18.2884C23.4237 18.187 23.9834 18.4702 24.2461 19.0267C24.5698 19.7122 24.3205 20.5527 23.6894 20.9042C18.014 24.065 11.7799 23.7949 7.41381 22.8998C5.23177 22.4525 3.3948 21.6788 2.09725 20.7548C1.4111 20.2662 0.908202 19.7629 0.56597 19.2588C0.235352 18.7719 0.00320503 18.2047 0.00318337 17.6151C0.00316325 17.0638 0.101578 16.5432 0.291459 16.0564C1.09913 16.9855 2.16623 17.7681 3.40346 18.3775C3.4448 18.3979 3.48637 18.4181 3.52818 18.4381C4.47793 19.1081 5.96823 19.7647 7.8902 20.1587C11.7415 20.9483 17.109 21.1223 22.511 18.4253Z" fill="url(#paint1_radial_2010_140)"/>
<path d="M21.7717 12.851C19.703 12.2329 17.3026 11.813 14.6706 11.6187C10.4275 11.3055 6.93521 11.6853 4.42566 12.6099C4.68165 12.8456 5.07063 13.1242 5.65816 13.4137C6.53283 13.8445 7.70373 14.2103 9.16361 14.4249C10.7002 14.2736 12.4822 14.2531 14.4964 14.4018C14.7178 14.4181 14.9368 14.4361 15.1536 14.4557C17.8221 14.1663 20.0523 13.5898 21.7717 12.851Z" fill="#FFBF00"/>
<path d="M21.7717 12.851C19.703 12.2329 17.3026 11.813 14.6706 11.6187C10.4275 11.3055 6.93521 11.6853 4.42566 12.6099C4.68165 12.8456 5.07063 13.1242 5.65816 13.4137C6.53283 13.8445 7.70373 14.2103 9.16361 14.4249C10.7002 14.2736 12.4822 14.2531 14.4964 14.4018C14.7178 14.4181 14.9368 14.4361 15.1536 14.4557C17.8221 14.1663 20.0523 13.5898 21.7717 12.851Z" fill="url(#paint2_radial_2010_140)"/>
<path d="M25.0793 17.3112C25.4218 17.1316 25.7519 16.9438 26.0691 16.7478C26.5658 16.441 27.0356 16.1102 27.4731 15.7562C28.8137 16.9522 29.5803 18.3795 29.5829 20.0012C29.6558 21.2107 28.8379 23.0327 26.5999 24.6299C24.3531 26.2333 20.6517 27.6318 14.8749 27.9975C14.1669 28.0424 13.5595 27.4553 13.5182 26.6863C13.4769 25.9173 14.0174 25.2576 14.7254 25.2128C20.2153 24.8652 23.4353 23.5505 25.1895 22.2986C27.6782 20.5225 27.4515 18.8698 25.0793 17.3112Z" fill="#FFBF00"/>
<path d="M25.0793 17.3112C25.4218 17.1316 25.7519 16.9438 26.0691 16.7478C26.5658 16.441 27.0356 16.1102 27.4731 15.7562C28.8137 16.9522 29.5803 18.3795 29.5829 20.0012C29.6558 21.2107 28.8379 23.0327 26.5999 24.6299C24.3531 26.2333 20.6517 27.6318 14.8749 27.9975C14.1669 28.0424 13.5595 27.4553 13.5182 26.6863C13.4769 25.9173 14.0174 25.2576 14.7254 25.2128C20.2153 24.8652 23.4353 23.5505 25.1895 22.2986C27.6782 20.5225 27.4515 18.8698 25.0793 17.3112Z" fill="url(#paint3_radial_2010_140)"/>
</g>
</g>
<defs>
<radialGradient id="paint0_radial_2010_140" cx="0" cy="0" r="1" gradientUnits="userSpaceOnUse" gradientTransform="translate(12.5047 7.19739) rotate(83.047) scale(11.1714 13.2683)">
<stop stop-color="#FB9937"/>
<stop offset="1" stop-color="#FFBF00"/>
</radialGradient>
<radialGradient id="paint1_radial_2010_140" cx="0" cy="0" r="1" gradientUnits="userSpaceOnUse" gradientTransform="translate(18.1846 13.6881) rotate(96.4588) scale(14.4265 24.5464)">
<stop stop-color="#EB7805"/>
<stop offset="1" stop-color="#FFBF00"/>
</radialGradient>
<radialGradient id="paint2_radial_2010_140" cx="0" cy="0" r="1" gradientUnits="userSpaceOnUse" gradientTransform="translate(18.1846 13.6881) rotate(96.4588) scale(14.4265 24.5464)">
<stop stop-color="#EB7805"/>
<stop offset="1" stop-color="#FFBF00"/>
</radialGradient>
<radialGradient id="paint3_radial_2010_140" cx="0" cy="0" r="1" gradientUnits="userSpaceOnUse" gradientTransform="translate(18.1846 13.6881) rotate(96.4588) scale(14.4265 24.5464)">
<stop stop-color="#EB7805"/>
<stop offset="1" stop-color="#FFBF00"/>
</radialGradient>
</defs>
</svg>
